{"title":"The Resistance (2011) DVDRip XviD AC3 peaSoup","uid":10488983,"size":1276849044,"categoryP":"video","categoryS":"movies","magnet":"?xt=urn:btih:7c6b6a986bcb56e092a249079f7481818966c107&amp;dn=The+Resistance+%282011%29+DVDRip+XviD+AC3+peaSoup&amp;tr=udp%3A%2F%2Ftracker.openbittorrent.com%3A80&amp;tr=udp%3A%2F%2Fopen.demonii.com%3A1337&amp;tr=udp%3A%2F%2Ftracker.coppersurfer.tk%3A6969&amp;tr=udp%3A%2F%2Fexodus.desync.com%3A6969","seeders":5,"leechers":0,"uploader":"peaSoup","files":-1,"time":1404519249,"description":"Storyline\n\nIn 1937, Japan began their invasion of China by murdering over 300,000 people in the capital of Nanjing. The atrocities committed against women and their daughters are especially barbaric. In Beijing, there are rumors that a masked man is systematically killing Japanese soldiers, working his way to the top Japanese General of the 1937 invasion on Chinese women. With the world's attention on Europe, treaties are useless and genocide rages throughout the country going unnoticed. An American reporter is sent to China to uncover the truth about the unrest between China and Japan. What he finds threatens his own life and the sovereignty of the United States.                                                                      &lt;a href=&quot; http://i.imgur.com/fTtEqjV.jpg&quot; rel=&quot;nofollow&quot; target=&quot;_NEW&quot;&gt; http://i.imgur.com/fTtEqjV.jpg&lt;/a&gt;                                                      &lt;a href=&quot; http://i.imgur.com/YIDVKi2.jpg&quot; rel=&quot;nofollow&quot; target=&quot;_NEW&quot;&gt; http://i.imgur.com/YIDVKi2.jpg&lt;/a&gt;                                                      &lt;a href=&quot; http://i.imgur.com/oKXzt45.jpg&quot; rel=&quot;nofollow&quot; target=&quot;_NEW&quot;&gt; http://i.imgur.com/oKXzt45.jpg&lt;/a&gt;                                                      &lt;a href=&quot; http://i.imgur.com/md4uyxI.jpg&quot; rel=&quot;nofollow&quot; target=&quot;_NEW&quot;&gt; http://i.imgur.com/md4uyxI.jpg&lt;/a&gt;                                                      &lt;a href=&quot; http://i.imgur.com/VGYJPIF.jpg&quot; rel=&quot;nofollow&quot; target=&quot;_NEW&quot;&gt; http://i.imgur.com/VGYJPIF.jpg&lt;/a&gt;                                                       Format                                   : AVI\nFormat/Info                              : Audio Video Interleave\nFormat profile                           : OpenDML\nFile size                                : 1.19 GiB\nDuration                                 : 1h 25mn\nOverall bit rate                         : 1 998 Kbps\nMovie name                               : The Resistance (2011) DVDRip XviD AC3 peaSoup\nWriting application                      : Lavf54.63.104\n\nVideo\nID                                       : 0\nFormat                                   : MPEG-4 Visual\nFormat profile                           : Advanced Simple@L5\nFormat settings, BVOP                    : 2\nFormat settings, QPel                    : No\nFormat settings, GMC                     : No warppoints\nFormat settings, Matrix                  : Default (MPEG)\nMuxing mode                              : Packed bitstream\nCodec ID                                 : XVID\nCodec ID/Hint                            : XviD\nDuration                                 : 1h 25mn\nBit rate                                 : 1 793 Kbps\nWidth                                    : 720 pixels\nHeight                                   : 404 pixels\nDisplay aspect ratio                     : 16:9\nFrame rate                               : 25.000 fps\nColor space                              : YUV\nChroma subsampling                       : 4:2:0\nBit depth                                : 8 bits\nScan type                                : Progressive\nCompression mode                         : Lossy\nBits/(Pixel*Frame)                       : 0.247\nStream size                              : 1.07 GiB (90%)\nWriting library                          : XviD 64\n\nAudio\nID                                       : 1\nFormat                                   : AC-3\nFormat/Info                              : Audio Coding 3\nMode extension                           : CM (complete main)\nFormat settings, Endianness              : Big\nCodec ID                                 : 2000\nDuration                                 : 1h 25mn\nBit rate mode                            : Constant\nBit rate                                 : 192 Kbps\nChannel(s)                               : 2 channels\nChannel positions                        : Front: L R\nSampling rate                            : 48.0 KHz\nBit depth                                : 16 bits\nCompression mode                         : Lossy\nStream size                              : 117 MiB (10%)\nAlignment                                : Aligned on interleaves\nInterleave, duration                     : 32 ms (0.80 video frame)\n\n","torrent":{"xt":"urn:btih:7c6b6a986bcb56e092a249079f7481818966c107","amp;dn":"The+Resistance+%282011%29+DVDRip+XviD+AC3+peaSoup","amp;tr":["udp%3A%2F%2Ftracker.openbittorrent.com%3A80","udp%3A%2F%2Fopen.demonii.com%3A1337","udp%3A%2F%2Ftracker.coppersurfer.tk%3A6969","udp%3A%2F%2Fexodus.desync.com%3A6969"],"infoHash":"7c6b6a986bcb56e092a249079f7481818966c107","infoHashBuffer":{"type":"Buffer","data":[124,107,106,152,107,203,86,224,146,162,73,7,159,116,129,129,137,102,193,7]},"announce":[],"urlList":[]}}